<?xml version="1.0" encoding="UTF-8" standalone="no"?>
<!-- Created with Inkscape (http://www.inkscape.org/) -->

<svg
   width="76.999863mm"
   height="59.349945mm"
   viewBox="0 0 76.999863 59.349945"
   version="1.1"
   id="svg1"
   inkscape:version="1.3.2 (091e20e, 2023-11-25)"
   sodipodi:docname="area.svg"
   inkscape:export-filename="area.pdf"
   inkscape:export-xdpi="96"
   inkscape:export-ydpi="96"
   xmlns:inkscape="http://www.inkscape.org/namespaces/inkscape"
   xmlns:sodipodi="http://sodipodi.sourceforge.net/DTD/sodipodi-0.dtd"
   xmlns:xlink="http://www.w3.org/1999/xlink"
   xmlns="http://www.w3.org/2000/svg"
   xmlns:svg="http://www.w3.org/2000/svg">
  <sodipodi:namedview
     id="namedview1"
     pagecolor="#ffffff"
     bordercolor="#000000"
     borderopacity="0.25"
     inkscape:showpageshadow="2"
     inkscape:pageopacity="0.0"
     inkscape:pagecheckerboard="0"
     inkscape:deskcolor="#d1d1d1"
     inkscape:document-units="mm"
     showgrid="true"
     inkscape:zoom="3.7095118"
     inkscape:cx="133.44074"
     inkscape:cy="162.01593"
     inkscape:window-width="2072"
     inkscape:window-height="1495"
     inkscape:window-x="0"
     inkscape:window-y="25"
     inkscape:window-maximized="0"
     inkscape:current-layer="layer1">
    <inkscape:grid
       id="grid1"
       units="px"
       originx="-19.094096"
       originy="-27.483594"
       spacingx="0.26458333"
       spacingy="0.26458334"
       empcolor="#0099e5"
       empopacity="0.30196078"
       color="#0099e5"
       opacity="0.14901961"
       empspacing="5"
       dotted="false"
       gridanglex="30"
       gridanglez="30"
       visible="true" />
  </sodipodi:namedview>
  <defs
     id="defs1" />
  <g
     inkscape:label="Layer 1"
     inkscape:groupmode="layer"
     id="layer1"
     transform="translate(-19.094096,-27.483594)">
    <g
       id="g558"
       transform="rotate(-90,62.177082,60.192707)">
      <rect
         style="fill:none;stroke:#000000;stroke-width:0.365;stroke-dasharray:none"
         id="rect1"
         width="4.992795"
         height="5.135447"
         x="37.224167"
         y="27.963751"
         inkscape:tile-cx="39.720563"
         inkscape:tile-cy="30.531474"
         inkscape:tile-w="5.3577949"
         inkscape:tile-h="5.5004469"
         inkscape:tile-x0="37.041666"
         inkscape:tile-y0="27.78125" />
      <use
         x="0"
         y="0"
         inkscape:tiled-clone-of="#rect1"
         xlink:href="#rect1"
         id="use478" />
      <use
         x="0"
         y="0"
         inkscape:tiled-clone-of="#rect1"
         xlink:href="#rect1"
         transform="translate(0,6.6005363)"
         id="use479" />
      <use
         x="0"
         y="0"
         inkscape:tiled-clone-of="#rect1"
         xlink:href="#rect1"
         transform="translate(0,13.201073)"
         id="use480" />
      <use
         x="0"
         y="0"
         inkscape:tiled-clone-of="#rect1"
         xlink:href="#rect1"
         transform="translate(0,19.801609)"
         id="use481" />
      <use
         x="0"
         y="0"
         inkscape:tiled-clone-of="#rect1"
         xlink:href="#rect1"
         transform="translate(0,26.402145)"
         id="use482" />
      <use
         x="0"
         y="0"
         inkscape:tiled-clone-of="#rect1"
         xlink:href="#rect1"
         transform="translate(0,33.002681)"
         id="use483" />
      <use
         x="0"
         y="0"
         inkscape:tiled-clone-of="#rect1"
         xlink:href="#rect1"
         transform="translate(0,39.603218)"
         id="use484" />
      <use
         x="0"
         y="0"
         inkscape:tiled-clone-of="#rect1"
         xlink:href="#rect1"
         transform="translate(0,46.203754)"
         id="use485" />
      <use
         x="0"
         y="0"
         inkscape:tiled-clone-of="#rect1"
         xlink:href="#rect1"
         transform="translate(0,52.80429)"
         id="use486" />
      <use
         x="0"
         y="0"
         inkscape:tiled-clone-of="#rect1"
         xlink:href="#rect1"
         transform="translate(0,59.404827)"
         id="use487" />
      <use
         x="0"
         y="0"
         inkscape:tiled-clone-of="#rect1"
         xlink:href="#rect1"
         transform="translate(6.4293539)"
         id="use488" />
      <use
         x="0"
         y="0"
         inkscape:tiled-clone-of="#rect1"
         xlink:href="#rect1"
         transform="translate(6.4293539,6.6005363)"
         id="use489" />
      <use
         x="0"
         y="0"
         inkscape:tiled-clone-of="#rect1"
         xlink:href="#rect1"
         transform="translate(6.4293539,13.201073)"
         id="use490" />
      <use
         x="0"
         y="0"
         inkscape:tiled-clone-of="#rect1"
         xlink:href="#rect1"
         transform="translate(6.4293539,19.801609)"
         id="use491" />
      <use
         x="0"
         y="0"
         inkscape:tiled-clone-of="#rect1"
         xlink:href="#rect1"
         transform="translate(6.4293539,26.402145)"
         id="use492" />
      <use
         x="0"
         y="0"
         inkscape:tiled-clone-of="#rect1"
         xlink:href="#rect1"
         transform="translate(6.4293539,33.002681)"
         id="use493" />
      <use
         x="0"
         y="0"
         inkscape:tiled-clone-of="#rect1"
         xlink:href="#rect1"
         transform="translate(6.4293539,39.603218)"
         id="use494" />
      <use
         x="0"
         y="0"
         inkscape:tiled-clone-of="#rect1"
         xlink:href="#rect1"
         transform="translate(6.4293539,46.203754)"
         id="use495" />
      <use
         x="0"
         y="0"
         inkscape:tiled-clone-of="#rect1"
         xlink:href="#rect1"
         transform="translate(6.4293539,52.80429)"
         id="use496" />
      <use
         x="0"
         y="0"
         inkscape:tiled-clone-of="#rect1"
         xlink:href="#rect1"
         transform="translate(6.4293539,59.404827)"
         id="use497" />
      <use
         x="0"
         y="0"
         inkscape:tiled-clone-of="#rect1"
         xlink:href="#rect1"
         transform="translate(12.858708)"
         id="use498" />
      <use
         x="0"
         y="0"
         inkscape:tiled-clone-of="#rect1"
         xlink:href="#rect1"
         transform="translate(12.858708,6.6005363)"
         id="use499" />
      <use
         x="0"
         y="0"
         inkscape:tiled-clone-of="#rect1"
         xlink:href="#rect1"
         transform="translate(12.858708,13.201073)"
         id="use500" />
      <use
         x="0"
         y="0"
         inkscape:tiled-clone-of="#rect1"
         xlink:href="#rect1"
         transform="translate(12.858708,19.801609)"
         id="use501" />
      <use
         x="0"
         y="0"
         inkscape:tiled-clone-of="#rect1"
         xlink:href="#rect1"
         transform="translate(12.858708,26.402145)"
         id="use502" />
      <use
         x="0"
         y="0"
         inkscape:tiled-clone-of="#rect1"
         xlink:href="#rect1"
         transform="translate(12.858708,33.002681)"
         id="use503" />
      <use
         x="0"
         y="0"
         inkscape:tiled-clone-of="#rect1"
         xlink:href="#rect1"
         transform="translate(12.858708,39.603218)"
         id="use504" />
      <use
         x="0"
         y="0"
         inkscape:tiled-clone-of="#rect1"
         xlink:href="#rect1"
         transform="translate(12.858708,46.203754)"
         id="use505" />
      <use
         x="0"
         y="0"
         inkscape:tiled-clone-of="#rect1"
         xlink:href="#rect1"
         transform="translate(12.858708,52.80429)"
         id="use506" />
      <use
         x="0"
         y="0"
         inkscape:tiled-clone-of="#rect1"
         xlink:href="#rect1"
         transform="translate(12.858708,59.404827)"
         id="use507" />
      <use
         x="0"
         y="0"
         inkscape:tiled-clone-of="#rect1"
         xlink:href="#rect1"
         transform="translate(19.288062)"
         id="use508" />
      <use
         x="0"
         y="0"
         inkscape:tiled-clone-of="#rect1"
         xlink:href="#rect1"
         transform="translate(19.288062,6.6005363)"
         id="use509" />
      <use
         x="0"
         y="0"
         inkscape:tiled-clone-of="#rect1"
         xlink:href="#rect1"
         transform="translate(19.288062,13.201073)"
         id="use510" />
      <use
         x="0"
         y="0"
         inkscape:tiled-clone-of="#rect1"
         xlink:href="#rect1"
         transform="translate(19.288062,19.801609)"
         id="use511" />
      <use
         x="0"
         y="0"
         inkscape:tiled-clone-of="#rect1"
         xlink:href="#rect1"
         transform="translate(19.288062,26.402145)"
         id="use512" />
      <use
         x="0"
         y="0"
         inkscape:tiled-clone-of="#rect1"
         xlink:href="#rect1"
         transform="translate(19.288062,33.002681)"
         id="use513" />
      <use
         x="0"
         y="0"
         inkscape:tiled-clone-of="#rect1"
         xlink:href="#rect1"
         transform="translate(19.288062,39.603218)"
         id="use514" />
      <use
         x="0"
         y="0"
         inkscape:tiled-clone-of="#rect1"
         xlink:href="#rect1"
         transform="translate(19.288062,46.203754)"
         id="use515" />
      <use
         x="0"
         y="0"
         inkscape:tiled-clone-of="#rect1"
         xlink:href="#rect1"
         transform="translate(19.288062,52.80429)"
         id="use516" />
      <use
         x="0"
         y="0"
         inkscape:tiled-clone-of="#rect1"
         xlink:href="#rect1"
         transform="translate(19.288062,59.404827)"
         id="use517" />
      <use
         x="0"
         y="0"
         inkscape:tiled-clone-of="#rect1"
         xlink:href="#rect1"
         transform="translate(25.717416)"
         id="use518" />
      <use
         x="0"
         y="0"
         inkscape:tiled-clone-of="#rect1"
         xlink:href="#rect1"
         transform="translate(25.717416,6.6005363)"
         id="use519" />
      <use
         x="0"
         y="0"
         inkscape:tiled-clone-of="#rect1"
         xlink:href="#rect1"
         transform="translate(25.717416,13.201073)"
         id="use520" />
      <use
         x="0"
         y="0"
         inkscape:tiled-clone-of="#rect1"
         xlink:href="#rect1"
         transform="translate(25.717416,19.801609)"
         id="use521" />
      <use
         x="0"
         y="0"
         inkscape:tiled-clone-of="#rect1"
         xlink:href="#rect1"
         transform="translate(25.717416,26.402145)"
         id="use522" />
      <use
         x="0"
         y="0"
         inkscape:tiled-clone-of="#rect1"
         xlink:href="#rect1"
         transform="translate(25.717416,33.002681)"
         id="use523" />
      <use
         x="0"
         y="0"
         inkscape:tiled-clone-of="#rect1"
         xlink:href="#rect1"
         transform="translate(25.717416,39.603218)"
         id="use524" />
      <use
         x="0"
         y="0"
         inkscape:tiled-clone-of="#rect1"
         xlink:href="#rect1"
         transform="translate(25.717416,46.203754)"
         id="use525" />
      <use
         x="0"
         y="0"
         inkscape:tiled-clone-of="#rect1"
         xlink:href="#rect1"
         transform="translate(25.717416,52.80429)"
         id="use526" />
      <use
         x="0"
         y="0"
         inkscape:tiled-clone-of="#rect1"
         xlink:href="#rect1"
         transform="translate(25.717416,59.404827)"
         id="use527" />
      <use
         x="0"
         y="0"
         inkscape:tiled-clone-of="#rect1"
         xlink:href="#rect1"
         transform="translate(32.146769)"
         id="use528" />
      <use
         x="0"
         y="0"
         inkscape:tiled-clone-of="#rect1"
         xlink:href="#rect1"
         transform="translate(32.146769,6.6005363)"
         id="use529" />
      <use
         x="0"
         y="0"
         inkscape:tiled-clone-of="#rect1"
         xlink:href="#rect1"
         transform="translate(32.146769,13.201073)"
         id="use530" />
      <use
         x="0"
         y="0"
         inkscape:tiled-clone-of="#rect1"
         xlink:href="#rect1"
         transform="translate(32.146769,19.801609)"
         id="use531" />
      <use
         x="0"
         y="0"
         inkscape:tiled-clone-of="#rect1"
         xlink:href="#rect1"
         transform="translate(32.146769,26.402145)"
         id="use532" />
      <use
         x="0"
         y="0"
         inkscape:tiled-clone-of="#rect1"
         xlink:href="#rect1"
         transform="translate(32.146769,33.002681)"
         id="use533" />
      <use
         x="0"
         y="0"
         inkscape:tiled-clone-of="#rect1"
         xlink:href="#rect1"
         transform="translate(32.146769,39.603218)"
         id="use534" />
      <use
         x="0"
         y="0"
         inkscape:tiled-clone-of="#rect1"
         xlink:href="#rect1"
         transform="translate(32.146769,46.203754)"
         id="use535" />
      <use
         x="0"
         y="0"
         inkscape:tiled-clone-of="#rect1"
         xlink:href="#rect1"
         transform="translate(32.146769,52.80429)"
         id="use536" />
      <use
         x="0"
         y="0"
         inkscape:tiled-clone-of="#rect1"
         xlink:href="#rect1"
         transform="translate(32.146769,59.404827)"
         id="use537" />
      <use
         x="0"
         y="0"
         inkscape:tiled-clone-of="#rect1"
         xlink:href="#rect1"
         transform="translate(38.576123)"
         id="use538" />
      <use
         x="0"
         y="0"
         inkscape:tiled-clone-of="#rect1"
         xlink:href="#rect1"
         transform="translate(38.576123,6.6005363)"
         id="use539" />
      <use
         x="0"
         y="0"
         inkscape:tiled-clone-of="#rect1"
         xlink:href="#rect1"
         transform="translate(38.576123,13.201073)"
         id="use540" />
      <use
         x="0"
         y="0"
         inkscape:tiled-clone-of="#rect1"
         xlink:href="#rect1"
         transform="translate(38.576123,19.801609)"
         id="use541" />
      <use
         x="0"
         y="0"
         inkscape:tiled-clone-of="#rect1"
         xlink:href="#rect1"
         transform="translate(38.576123,26.402145)"
         id="use542" />
      <use
         x="0"
         y="0"
         inkscape:tiled-clone-of="#rect1"
         xlink:href="#rect1"
         transform="translate(38.576123,33.002681)"
         id="use543" />
      <use
         x="0"
         y="0"
         inkscape:tiled-clone-of="#rect1"
         xlink:href="#rect1"
         transform="translate(38.576123,39.603218)"
         id="use544" />
      <use
         x="0"
         y="0"
         inkscape:tiled-clone-of="#rect1"
         xlink:href="#rect1"
         transform="translate(38.576123,46.203754)"
         id="use545" />
      <use
         x="0"
         y="0"
         inkscape:tiled-clone-of="#rect1"
         xlink:href="#rect1"
         transform="translate(38.576123,52.80429)"
         id="use546" />
      <use
         x="0"
         y="0"
         inkscape:tiled-clone-of="#rect1"
         xlink:href="#rect1"
         transform="translate(38.576123,59.404827)"
         id="use547" />
      <use
         x="0"
         y="0"
         inkscape:tiled-clone-of="#rect1"
         xlink:href="#rect1"
         transform="translate(45.005477)"
         id="use548" />
      <use
         x="0"
         y="0"
         inkscape:tiled-clone-of="#rect1"
         xlink:href="#rect1"
         transform="translate(45.005477,6.6005363)"
         id="use549" />
      <use
         x="0"
         y="0"
         inkscape:tiled-clone-of="#rect1"
         xlink:href="#rect1"
         transform="translate(45.005477,13.201073)"
         id="use550" />
      <use
         x="0"
         y="0"
         inkscape:tiled-clone-of="#rect1"
         xlink:href="#rect1"
         transform="translate(45.005477,19.801609)"
         id="use551" />
      <use
         x="0"
         y="0"
         inkscape:tiled-clone-of="#rect1"
         xlink:href="#rect1"
         transform="translate(45.005477,26.402145)"
         id="use552" />
      <use
         x="0"
         y="0"
         inkscape:tiled-clone-of="#rect1"
         xlink:href="#rect1"
         transform="translate(45.005477,33.002681)"
         id="use553" />
      <use
         x="0"
         y="0"
         inkscape:tiled-clone-of="#rect1"
         xlink:href="#rect1"
         transform="translate(45.005477,39.603218)"
         id="use554" />
      <use
         x="0"
         y="0"
         inkscape:tiled-clone-of="#rect1"
         xlink:href="#rect1"
         transform="translate(45.005477,46.203754)"
         id="use555" />
      <use
         x="0"
         y="0"
         inkscape:tiled-clone-of="#rect1"
         xlink:href="#rect1"
         transform="translate(45.005477,52.80429)"
         id="use556" />
      <use
         x="0"
         y="0"
         inkscape:tiled-clone-of="#rect1"
         xlink:href="#rect1"
         transform="translate(45.005477,59.404827)"
         id="use557" />
      <rect
         style="fill:none;stroke:#ff0000;stroke-width:0.365001;stroke-dasharray:none"
         id="rect557"
         width="52.916664"
         height="67.46875"
         x="35.71875"
         y="26.458332" />
    </g>
    <g
       inkscape:label=""
       transform="translate(59.817878,27.483594)"
       id="g557">
      <g
         fill="#000000"
         fill-opacity="1"
         id="g3"
         transform="matrix(0.352778,0,0,0.352778,-0.896011,-0.707584)">
        <g
           id="use2"
           transform="translate(1.993,10.162)">
          <path
             d="M 4.390625,-7.25 C 4.5,-7.703125 4.53125,-7.8125 5.578125,-7.8125 c 0.328125,0 0.40625,0 0.40625,-0.234375 0,-0.109375 -0.125,-0.109375 -0.171875,-0.109375 -0.25,0 -0.515625,0.015625 -0.75,0.015625 H 3.453125 c -0.21875,0 -0.484375,-0.015625 -0.71875,-0.015625 -0.09375,0 -0.21875,0 -0.21875,0.21875 0,0.125 0.109375,0.125 0.28125,0.125 0.734375,0 0.734375,0.09375 0.734375,0.21875 0,0.03125 0,0.09375 -0.046875,0.28125 l -1.625,6.421875 C 1.75,-0.46875 1.734375,-0.34375 0.890625,-0.34375 c -0.21875,0 -0.34375,0 -0.34375,0.21875 C 0.546875,0 0.625,0 0.859375,0 H 6.21875 C 6.484375,0 6.484375,-0.015625 6.578125,-0.234375 L 7.5,-2.765625 c 0.015625,-0.0625 0.046875,-0.140625 0.046875,-0.171875 0,-0.078125 -0.0625,-0.125 -0.125,-0.125 -0.015625,0 -0.078125,0 -0.09375,0.046875 C 7.296875,-3 7.296875,-2.96875 7.203125,-2.75 c -0.375,1.046875 -0.921875,2.40625 -2.9375,2.40625 H 3.125 c -0.171875,0 -0.203125,0 -0.265625,-0.015625 C 2.71875,-0.375 2.71875,-0.390625 2.71875,-0.484375 c 0,-0.09375 0.015625,-0.15625 0.046875,-0.265625 z m 0,0"
             id="path4" />
        </g>
      </g>
      <g
         fill="#000000"
         fill-opacity="1"
         id="g4"
         transform="matrix(0.352778,0,0,0.352778,-0.896011,-0.707584)">
        <g
           id="use3"
           transform="translate(9.9569998,11.955)">
          <path
             d="m 2.5,-5.078125 c 0,-0.21875 -0.015625,-0.21875 -0.234375,-0.21875 -0.328125,0.3125 -0.75,0.5 -1.5,0.5 v 0.265625 c 0.21875,0 0.640625,0 1.109375,-0.203125 v 4.078125 c 0,0.296875 -0.03125,0.390625 -0.78125,0.390625 H 0.8125 V 0 c 0.328125,-0.03125 1.015625,-0.03125 1.375,-0.03125 0.359375,0 1.046875,0 1.375,0.03125 V -0.265625 H 3.28125 c -0.75,0 -0.78125,-0.09375 -0.78125,-0.390625 z m 0,0"
             id="path5" />
        </g>
      </g>
    </g>
    <g
       inkscape:label=""
       transform="translate(19.094095,56.77793)"
       id="g563">
      <g
         fill="#000000"
         fill-opacity="1"
         id="g560"
         transform="matrix(0.352778,0,0,0.352778,-0.896011,-0.707584)">
        <g
           id="g559"
           transform="translate(1.993,10.162)">
          <path
             d="M 4.390625,-7.25 C 4.5,-7.703125 4.53125,-7.8125 5.578125,-7.8125 c 0.328125,0 0.40625,0 0.40625,-0.234375 0,-0.109375 -0.125,-0.109375 -0.171875,-0.109375 -0.25,0 -0.515625,0.015625 -0.75,0.015625 H 3.453125 c -0.21875,0 -0.484375,-0.015625 -0.71875,-0.015625 -0.09375,0 -0.21875,0 -0.21875,0.21875 0,0.125 0.109375,0.125 0.28125,0.125 0.734375,0 0.734375,0.09375 0.734375,0.21875 0,0.03125 0,0.09375 -0.046875,0.28125 l -1.625,6.421875 C 1.75,-0.46875 1.734375,-0.34375 0.890625,-0.34375 c -0.21875,0 -0.34375,0 -0.34375,0.21875 C 0.546875,0 0.625,0 0.859375,0 H 6.21875 C 6.484375,0 6.484375,-0.015625 6.578125,-0.234375 L 7.5,-2.765625 c 0.015625,-0.0625 0.046875,-0.140625 0.046875,-0.171875 0,-0.078125 -0.0625,-0.125 -0.125,-0.125 -0.015625,0 -0.078125,0 -0.09375,0.046875 C 7.296875,-3 7.296875,-2.96875 7.203125,-2.75 c -0.375,1.046875 -0.921875,2.40625 -2.9375,2.40625 H 3.125 c -0.171875,0 -0.203125,0 -0.265625,-0.015625 C 2.71875,-0.375 2.71875,-0.390625 2.71875,-0.484375 c 0,-0.09375 0.015625,-0.15625 0.046875,-0.265625 z m 0,0"
             id="path558" />
        </g>
      </g>
      <g
         fill="#000000"
         fill-opacity="1"
         id="g562"
         transform="matrix(0.352778,0,0,0.352778,-0.896011,-0.707584)">
        <g
           id="g561"
           transform="translate(9.9569998,11.955)">
          <path
             d="m 2.25,-1.625 c 0.125,-0.125 0.453125,-0.390625 0.59375,-0.5 0.484375,-0.453125 0.953125,-0.890625 0.953125,-1.609375 0,-0.953125 -0.796875,-1.5625 -1.78125,-1.5625 -0.96875,0 -1.59375,0.71875 -1.59375,1.4375 0,0.390625 0.3125,0.4375 0.421875,0.4375 0.171875,0 0.421875,-0.109375 0.421875,-0.421875 0,-0.40625 -0.40625,-0.40625 -0.5,-0.40625 C 1,-4.84375 1.53125,-5.03125 1.921875,-5.03125 c 0.734375,0 1.125,0.625 1.125,1.296875 0,0.828125 -0.578125,1.4375 -1.53125,2.390625 l -1,1.046875 C 0.421875,-0.21875 0.421875,-0.203125 0.421875,0 H 3.5625 l 0.234375,-1.421875 h -0.25 C 3.53125,-1.265625 3.46875,-0.875 3.375,-0.71875 c -0.046875,0.0625 -0.65625,0.0625 -0.78125,0.0625 H 1.171875 Z m 0,0"
             id="path560" />
        </g>
      </g>
    </g>
    <path
       style="fill:none;stroke:#000000;stroke-width:0.0959078;stroke-dasharray:none"
       d="m 28.511305,32.513382 -0.0033,-0.702028 66.741992,-0.06135 v 0.79375"
       id="path563"
       sodipodi:nodetypes="cccc" />
    <path
       style="fill:none;stroke:#000000;stroke-width:0.165;stroke-dasharray:none"
       d="m 26.458332,34.395833 h -1.322916 v 51.593752 h 1.322916"
       id="path564" />
  </g>
</svg>
